<svg width="43" height="43" viewBox="0 0 43 43" fill="none" xmlns="http://www.w3.org/2000/svg">
<path d="M3.58331 21.4997L12.5416 28.6663V23.2913H28.6666V19.708H12.5416V14.333L3.58331 21.4997Z" fill="white"/>
<path d="M23.2935 5.37311C21.1749 5.36723 19.0762 5.78181 17.1189 6.59281C15.1617 7.40381 13.3848 8.59513 11.8913 10.0977L14.4247 12.6312C16.7933 10.2626 19.943 8.95644 23.2935 8.95644C26.6439 8.95644 29.7936 10.2626 32.1622 12.6312C34.5308 14.9997 35.8369 18.1495 35.8369 21.4999C35.8369 24.8503 34.5308 28.0001 32.1622 30.3687C29.7936 32.7372 26.6439 34.0434 23.2935 34.0434C19.943 34.0434 16.7933 32.7372 14.4247 30.3687L11.8913 32.9021C14.9353 35.9479 18.9845 37.6267 23.2935 37.6267C27.6024 37.6267 31.6516 35.9479 34.6956 32.9021C37.7415 29.858 39.4203 25.8089 39.4203 21.4999C39.4203 17.1909 37.7415 13.1418 34.6956 10.0977C33.2021 8.59513 31.4252 7.40381 29.468 6.59281C27.5108 5.78181 25.4121 5.36723 23.2935 5.37311Z" fill="white"/>
</svg>
